<?xml version="1.0" standalone="no"?>
<!DOCTYPE svg PUBLIC "-//W3C//DTD SVG 20010904//EN"
 "http://www.w3.org/TR/2001/REC-SVG-20010904/DTD/svg10.dtd">
<svg version="1.0" xmlns="http://www.w3.org/2000/svg"
 width="1150.000000pt" height="1150.000000pt" viewBox="0 0 1150.000000 1150.000000"
 preserveAspectRatio="xMidYMid meet">
<metadata>
Created by potrace 1.14, written by Peter Selinger 2001-2017
</metadata>
<g transform="translate(0.000000,1150.000000) scale(0.100000,-0.100000)"
fill="#000000" stroke="none">
<path d="M5088 11163 c6 -2 18 -2 25 0 6 3 1 5 -13 5 -14 0 -19 -2 -12 -5z"/>
<path d="M5168 11163 c7 -3 16 -2 19 1 4 3 -2 6 -13 5 -11 0 -14 -3 -6 -6z"/>
<path d="M4983 11153 c15 -2 39 -2 55 0 15 2 2 4 -28 4 -30 0 -43 -2 -27 -4z"/>
<path d="M6438 11153 c7 -3 16 -2 19 1 4 3 -2 6 -13 5 -11 0 -14 -3 -6 -6z"/>
<path d="M4730 11130 c-247 -37 -438 -95 -479 -144 -9 -11 12 -3 51 18 95 53
257 91 553 130 72 10 86 14 50 14 -27 0 -106 -8 -175 -18z"/>
<path d="M6508 11143 c12 -2 32 -2 45 0 12 2 2 4 -23 4 -25 0 -35 -2 -22 -4z"/>
<path d="M6640 11130 c334 -49 509 -95 608 -160 17 -12 32 -18 32 -13 0 18
-89 65 -180 94 -102 33 -328 74 -450 83 l-75 5 65 -9z"/>
<path d="M4176 10857 c-15 -41 -82 -281 -227 -822 -156 -578 -242 -1001 -306
-1500 -27 -210 -28 -238 -27 -615 1 -310 5 -422 18 -520 75 -554 317 -1101
699 -1578 165 -206 625 -651 819 -793 62 -45 163 -94 236 -114 76 -21 91 -14
28 14 -52 23 -101 70 -87 84 5 5 37 -2 80 -17 61 -22 79 -25 114 -16 50 11
397 18 397 8 0 -18 104 -7 161 18 34 14 64 22 68 19 9 -9 -43 -49 -117 -90
-53 -30 -72 -35 -126 -35 -35 0 -83 -7 -106 -15 -45 -16 -135 -21 -112 -6 10
6 4 10 -18 15 -51 10 -79 7 -104 -9 -20 -14 -37 -14 -117 -4 -52 6 -97 13
-101 16 -16 9 -6 -10 47 -95 63 -98 87 -167 115 -326 56 -319 75 -646 74
-1246 -2 -990 -48 -1256 -253 -1459 -153 -152 -363 -261 -595 -307 -45 -9 -87
-16 -94 -17 -6 0 -10 -2 -7 -5 8 -8 -45 -44 -93 -63 l-47 -19 45 7 c118 15
394 115 511 183 93 54 31 8 -151 -115 -96 -64 -188 -129 -203 -143 -38 -35
-59 -76 -50 -98 7 -18 39 -54 48 -54 3 0 8 0 12 0 4 0 -2 -7 -13 -16 -18 -15
-18 -15 5 -8 16 4 21 3 17 -5 -4 -6 -1 -11 6 -11 10 0 9 -3 -2 -9 -11 -8 -4
-20 38 -61 41 -40 52 -47 52 -32 0 11 7 32 15 48 13 25 15 26 20 8 19 -57 42
-94 63 -99 12 -3 22 -13 22 -21 0 -11 -5 -14 -16 -10 -9 4 -22 2 -29 -4 -9 -7
-16 -6 -24 4 -8 10 -26 12 -64 8 -29 -3 -72 -5 -97 -4 -108 3 -178 9 -189 16
-6 4 -17 3 -24 -2 -8 -6 -34 -5 -72 4 -103 22 -339 64 -359 64 -13 0 -5 -11
29 -37 58 -44 46 -53 -39 -27 -46 14 -72 30 -106 64 -51 52 -100 118 -100 134
0 19 83 93 145 131 69 41 66 46 -6 9 -64 -32 -138 -99 -155 -141 -48 -113 18
-228 174 -307 236 -119 803 -228 1247 -240 88 -2 116 -1 75 3 -61 7 -59 8 42
9 140 3 159 25 28 35 -25 2 0 5 55 7 55 2 88 5 73 7 -34 5 -37 20 -5 26 12 2
-27 5 -88 7 -125 2 -100 13 59 25 48 4 84 11 80 15 -5 5 -43 15 -84 22 -70 13
-54 14 211 10 208 -4 288 -2 293 7 4 6 26 11 49 10 l42 0 -43 -14 c-24 -7 -70
-16 -102 -20 -106 -12 -64 -25 88 -27 l147 -1 -125 -11 c-69 -6 -113 -12 -97
-14 33 -4 35 -15 5 -31 -18 -9 7 -10 121 -6 165 6 184 -5 25 -15 -58 -4 -110
-12 -117 -19 -8 -8 24 -11 128 -13 111 -1 127 -3 75 -8 l-65 -7 67 -1 c87 -3
402 23 603 48 416 53 730 148 841 255 58 55 78 132 53 204 -14 40 -21 39 -42
-4 -9 -19 -20 -35 -24 -35 -164 -6 -340 -50 -490 -121 -44 -22 -85 -34 -118
-35 -68 -3 -67 -3 -59 -15 5 -8 0 -10 -17 -6 -13 3 -46 2 -74 -3 -54 -8 -68
-5 -45 11 11 8 9 9 -10 4 -47 -12 -195 -17 -220 -7 -18 7 -31 5 -47 -5 -17
-11 -26 -12 -42 -3 -14 7 -21 7 -21 0 0 -5 -8 -10 -19 -10 -10 0 -35 -7 -55
-15 -48 -20 -168 -45 -217 -45 -21 0 -39 -4 -39 -9 0 -5 -13 -11 -29 -13 -17
-2 -28 -1 -25 4 6 10 -110 0 -150 -13 -40 -12 -326 -11 -406 2 -117 20 -174
28 -260 39 -47 6 -89 15 -95 21 -12 12 40 12 63 0 20 -11 200 -26 191 -17 -4
4 -53 14 -110 22 -56 7 -105 17 -108 20 -3 3 4 14 16 24 l23 18 -23 16 -22 17
27 -4 c17 -3 25 0 21 6 -4 6 9 8 37 4 31 -4 40 -3 29 4 -10 7 3 9 41 5 30 -3
127 -7 215 -10 l160 -4 -110 12 c-108 12 -109 12 -60 21 53 8 294 0 335 -13
18 -5 3 -9 -55 -13 -45 -4 16 -6 137 -5 120 1 212 -1 206 -5 -11 -7 16 -6 112
6 l35 4 -22 -18 c-19 -16 -20 -20 -7 -25 10 -4 13 -2 8 6 -5 8 -2 9 9 5 10 -3
17 -3 17 2 0 15 72 44 79 32 5 -7 35 1 92 25 69 29 91 34 126 29 24 -3 49 -3
55 2 7 4 25 8 40 9 17 1 43 18 72 48 47 46 47 49 11 47 -17 -1 -16 1 5 11 14
6 29 10 33 9 5 -1 6 3 3 8 -4 5 -2 12 4 16 5 3 10 23 10 43 0 31 -8 44 -54 87
-48 44 -279 198 -330 218 -10 4 -17 9 -14 12 2 2 56 -17 119 -44 127 -54 306
-115 359 -124 l35 -5 -37 16 c-21 10 -38 22 -38 27 0 21 -40 44 -95 54 -175
33 -425 140 -559 241 -275 207 -342 460 -349 1310 -7 774 24 1296 93 1565 27
107 81 234 129 306 23 34 41 62 41 64 0 1 -21 1 -47 -2 l-48 -4 50 19 c67 25
176 92 244 150 31 27 101 84 156 128 192 153 454 422 626 644 358 461 587 952
673 1445 52 302 65 720 32 1025 -65 590 -211 1354 -391 2041 -30 118 -70 274
-88 346 -22 90 -36 133 -46 133 -20 0 -11 -43 64 -319 168 -620 246 -964 319
-1396 94 -556 133 -955 121 -1215 -7 -157 -27 -278 -40 -247 -13 30 -80 56
-197 77 -138 23 -418 50 -507 49 l-66 -1 97 -13 c185 -25 405 -77 548 -129 36
-14 77 -27 93 -30 21 -5 27 -12 27 -34 -1 -67 -45 -100 -210 -151 -467 -146
-1135 -217 -1925 -205 -736 12 -1309 83 -1710 211 -204 65 -248 94 -256 163
-2 25 1 44 7 38 3 -4 54 11 114 32 157 57 285 88 460 115 l155 23 -100 1
c-143 1 -464 -35 -545 -60 -19 -7 -49 -22 -67 -35 l-32 -24 -7 47 c-5 37 -9
43 -14 28 -31 -83 -23 503 10 780 41 347 63 479 136 815 56 255 100 430 165
663 28 100 54 191 57 202 2 11 40 142 83 291 43 149 81 290 85 313 5 30 11 41
20 37 21 -8 17 2 -5 14 -17 9 -21 5 -35 -33z m1669 -6008 c-22 -4 -85 -7 -140
-7 -99 2 -99 2 -30 8 39 4 102 7 140 7 62 1 65 0 30 -8z m14 -82 c-13 -10 -17
-47 -23 -217 -4 -113 -12 -263 -18 -335 -7 -81 -12 -494 -12 -1102 -1 -535 -5
-975 -9 -979 -4 -4 4 -15 19 -24 21 -14 22 -18 10 -23 -10 -4 -16 -19 -16 -41
0 -38 -12 -46 -68 -46 -66 0 -80 8 -84 49 -5 54 1 71 25 72 21 0 21 1 -2 10
-21 8 -23 14 -17 47 3 20 11 269 16 553 16 857 -13 1846 -59 2006 -11 39 -9
40 144 41 88 1 107 -1 94 -11z m1 -2897 c-5 -3 5 -11 23 -18 19 -7 44 -23 56
-36 l22 -23 -28 -12 c-43 -17 -157 -30 -221 -25 -85 7 -172 25 -172 36 0 8 29
38 74 75 5 5 64 8 132 8 68 1 119 -2 114 -5z m109 -125 c-36 -36 -266 -47
-391 -19 -59 13 -68 18 -57 29 12 11 23 11 69 -1 71 -20 288 -14 340 8 39 17
63 7 39 -17z m-364 -50 c101 -18 198 -18 300 0 89 16 109 13 44 -7 -65 -19
-340 -16 -399 4 -58 20 -44 21 55 3z m-30 -30 c124 -22 328 -18 415 10 14 4
21 -3 33 -37 8 -24 26 -61 41 -82 28 -42 33 -75 14 -94 -18 -18 45 2 98 32 24
13 44 22 44 18 -1 -22 -36 -46 -92 -63 -139 -44 -766 -48 -845 -5 -33 18 -22
20 26 6 42 -12 46 -8 29 19 -11 19 -8 26 39 73 28 29 61 72 73 96 12 23 27 42
34 42 6 0 47 -7 91 -15z m683 -221 c-13 -13 -199 -44 -258 -42 -64 1 -64 1 25
9 50 5 117 15 150 23 69 15 91 18 83 10z m-1053 -26 c17 -6 176 -14 355 -18
l325 -7 -330 2 c-324 2 -415 10 -415 37 0 6 8 7 18 3 9 -4 31 -12 47 -17z
m1136 -9 c17 -33 -2 -62 -63 -97 -64 -37 -154 -62 -220 -62 -30 0 -48 -4 -48
-12 0 -6 -10 -2 -23 10 -66 62 -397 73 -509 16 -24 -13 -27 -12 -22 1 5 12 -5
15 -55 15 -78 0 -186 24 -231 52 l-35 21 30 9 c17 5 183 11 370 14 382 5 611
18 700 38 84 19 93 19 106 -5z m-756 -399 c3 -5 2 -10 -4 -10 -5 0 -13 5 -16
10 -3 6 -2 10 4 10 5 0 13 -4 16 -10z m145 -10 c0 -5 -4 -10 -9 -10 -6 0 -13
5 -16 10 -3 6 1 10 9 10 9 0 16 -4 16 -10z m-730 -65 c0 -2 -10 -10 -22 -16
-21 -11 -22 -11 -9 4 13 16 31 23 31 12z m178 -7 c7 -7 12 -15 12 -19 0 -15
-66 -29 -134 -29 -65 1 -69 2 -51 16 14 10 32 13 60 9 48 -8 108 11 85 25 -13
8 -13 10 1 10 8 0 20 -5 27 -12z m1080 -205 c-10 -2 -26 -2 -35 0 -10 3 -2 5
17 5 19 0 27 -2 18 -5z m-945 -70 c-7 -2 -21 -2 -30 0 -10 3 -4 5 12 5 17 0
24 -2 18 -5z m-96 -39 c-3 -3 -12 -4 -19 -1 -8 3 -5 6 6 6 11 1 17 -2 13 -5z
m1116 -1 c-13 -2 -33 -2 -45 0 -13 2 -3 4 22 4 25 0 35 -2 23 -4z"/>
<path d="M7315 10880 c-11 -18 -88 -53 -180 -81 -49 -15 -83 -28 -76 -28 21
-1 169 45 224 69 26 12 47 27 47 35 0 17 -6 19 -15 5z"/>
<path d="M7008 10763 c6 -2 18 -2 25 0 6 3 1 5 -13 5 -14 0 -19 -2 -12 -5z"/>
<path d="M6968 10753 c7 -3 16 -2 19 1 4 3 -2 6 -13 5 -11 0 -14 -3 -6 -6z"/>
<path d="M6908 10743 c7 -3 16 -2 19 1 4 3 -2 6 -13 5 -11 0 -14 -3 -6 -6z"/>
<path d="M6608 983 c6 -2 18 -2 25 0 6 3 1 5 -13 5 -14 0 -19 -2 -12 -5z"/>
<path d="M6395 929 c-4 -6 -5 -12 -2 -15 2 -3 7 2 10 11 7 17 1 20 -8 4z"/>
<path d="M5588 900 c32 -14 18 -30 -26 -30 -20 0 -44 -5 -52 -10 -11 -7 1 -9
40 -8 32 0 56 -4 58 -11 2 -6 11 -11 19 -11 9 0 13 6 9 15 -4 11 2 15 28 15
33 0 66 24 52 37 -4 4 -39 9 -79 10 -55 2 -66 1 -49 -7z"/>
<path d="M5893 903 c-132 -5 -136 -23 -5 -24 114 -1 138 -4 169 -25 16 -10 29
-12 40 -5 14 7 5 13 -42 27 -48 13 -56 18 -40 25 l20 8 -20 -2 c-11 -1 -66 -3
-122 -4z"/>
<path d="M6341 883 c-1 -6 -26 -19 -57 -28 -70 -20 -66 -30 5 -11 58 15 65 19
58 38 -4 8 -6 9 -6 1z"/>
<path d="M5813 823 c9 -2 25 -2 35 0 9 3 1 5 -18 5 -19 0 -27 -2 -17 -5z"/>
<path d="M5408 583 c6 -2 18 -2 25 0 6 3 1 5 -13 5 -14 0 -19 -2 -12 -5z"/>
<path d="M6033 583 c15 -2 37 -2 50 0 12 2 0 4 -28 4 -27 0 -38 -2 -22 -4z"/>
</g>
</svg>
